<?xml version="1.0" encoding="UTF-8"?>
<!DOCTYPE svg PUBLIC "-//W3C//DTD SVG 1.1//EN" "http://www.w3.org/Graphics/SVG/1.1/DTD/svg11.dtd">
<!-- Creator: CorelDRAW -->
<svg xmlns="http://www.w3.org/2000/svg" xml:space="preserve" width="390px" height="511px" version="1.1" style="shape-rendering:geometricPrecision; text-rendering:geometricPrecision; image-rendering:optimizeQuality; fill-rule:evenodd; clip-rule:evenodd"
viewBox="0 0 60.81 79.78"
 xmlns:xlink="http://www.w3.org/1999/xlink"
 xmlns:xodm="http://www.corel.com/coreldraw/odm/2003">
 <defs>
  <style type="text/css">
   <![CDATA[
    .fil0 {fill:white}
   ]]>
  </style>
 </defs>
 <g id="Layer_x0020_1">
  <metadata id="CorelCorpID_0Corel-Layer"/>
  <g id="_2900145091232">
   <path class="fil0" d="M6.71 0l13.3 0 0 35.91c-1.36,0.31 -2.72,0.61 -4.06,0.99 -3.59,0.99 -6.64,2.37 -9.24,4.55l0 -41.45zm13.3 53.43l0 21.29c0,2.78 -2.28,5.06 -5.05,5.06l-3.2 0c-2.77,0 -5.05,-2.28 -5.05,-5.06l0 -16.34c0.13,0.03 0.25,0.05 0.37,0.08 0.96,0.26 1.98,0.63 2.92,0.96 1.12,0.4 2.3,0.8 3.4,1.25 0.27,0.14 0.58,0.19 0.9,0.15 0.48,-0.07 0.87,-0.33 1.11,-0.76 1.74,-3.05 2.67,-5.04 4.6,-6.63z"/>
   <path class="fil0" d="M36.76 48.45l0 13.78c0,2.78 -2.27,5.05 -5.05,5.05l-3.19 0c-2.78,0 -5.06,-2.27 -5.06,-5.05l0 -10.73c0.19,-0.08 0.38,-0.16 0.58,-0.23 2.46,-0.98 4.93,-1.73 7.54,-2.18 1.73,-0.29 3.45,-0.43 5.18,-0.64z"/>
   <path class="fil0" d="M36.76 0l-25 0 0 11.57 22.92 0c0.66,-0.49 1.35,-0.93 2.08,-1.33l0 -10.24z"/>
   <path class="fil0" d="M36.76 0c10.44,0 19.34,6.58 22.76,15.8 -3.59,-5.35 -10.07,-8.65 -17.26,-7.44 -1.97,0.33 -3.82,0.98 -5.5,1.88l0 -10.24z"/>
   <path class="fil0" d="M31.13 33.21c-7.3,5.98 -19.44,2.38 -26.91,13.27 -0.92,1.35 -4.5,7.44 -4.2,9.35 1.22,0.53 5.47,0.65 7.44,1.16 1.75,0.46 6.63,2.32 6.63,2.32 2.79,-4.89 3.72,-7.28 9.36,-9.52 13.1,-5.22 15.17,0.36 28.56,-9.8 3.57,-2.72 7.02,-5.15 8.36,-10.82 2.63,-11.11 -6.81,-21.11 -17.86,-19.24 -7.86,1.32 -13.28,8.03 -13.25,15.48 0.02,4.56 1.48,5.87 1.87,7.8zm-29.06 21.3c1.91,0.08 4.06,0.39 5.88,0.84 2.03,0.5 3.35,1.31 5.14,1.97l1.23 -1.92c4.88,-8.47 14.77,-9.4 23.81,-10.55 4.69,-0.59 5.9,-1.92 9.16,-3.57 -1.75,-0.58 -4.2,0.7 -9.14,-1.63 -1.42,-0.67 -2.29,-1.41 -3.39,-2.23 -1.13,-0.84 -2.02,-2.37 -2.72,-2.79 -3.8,2.54 -2.49,2.22 -8.56,3.72 -3.34,0.83 -6.77,1.51 -9.73,2.68 -3.44,1.36 -5.4,3.03 -7.22,5.18 -1.27,1.49 -3.82,5.89 -4.46,8.3zm40.61 -42.72c-4.22,0.8 -6.81,2.74 -8.72,5.24 -7.32,9.52 0.36,24.34 13.5,22.17 6.74,-1.1 12.77,-7.88 11.26,-16.17 -1.22,-6.74 -7.73,-12.8 -16.04,-11.24z"/>
   <path class="fil0" d="M12.62 54.17c1.01,-1.09 1.22,-2.36 2.44,-3.41 0.89,-0.77 2.7,-1.32 3.59,-2.18 -0.09,-0.95 -3.13,-4.12 -3.88,-4.75 -2.19,-1.81 -9.47,5.87 -8.49,7.82 0.29,0.58 5.23,2.46 6.34,2.52zm-4.71 -3.27l4 1.71c0.05,-0.08 0.11,-0.21 0.12,-0.17 0.02,0.04 0.09,-0.1 0.12,-0.13 0.15,-0.2 0.14,-0.19 0.3,-0.42 0.18,-0.26 0.32,-0.5 0.46,-0.7 1.29,-1.85 2.19,-2.1 3.84,-3.16 -1.09,-0.96 -1.84,-2.02 -2.96,-2.99 -2.45,0.82 -5.07,3.33 -5.88,5.86z"/>
   <path class="fil0" d="M15.94 41.79c-0.16,1.47 1.08,1.93 1.93,2.92 0.53,0.61 1.7,2.37 2.68,2.39 0.06,0 7.75,-2.01 7.92,-2.09 0.1,-1.28 -0.59,-2.86 -0.93,-4.12 -0.57,-2.15 -0.99,-1.5 -3.16,-0.94 -2.18,0.56 -6.89,1.19 -8.44,1.84zm2.05 0.95c0.36,0.88 0.63,0.75 1.31,1.48 0.51,0.55 0.76,0.97 1.3,1.46l6.37 -1.65 -0.81 -3.03 -8.17 1.74z"/>
   <path class="fil0" d="M30.43 44.61c0.83,0.39 8.92,-1.77 9.82,-2.35 -1.85,-0.99 -2.92,-1.9 -3.97,-2.44 -1.84,-0.96 -2.78,-3.15 -4.38,-2.39 -4.58,2.16 -4.48,0.98 -2.25,6.02 0.07,0.15 0.25,0.54 0.31,0.64 0.37,0.56 0.07,0.21 0.47,0.52zm-0.27 -4.51l1.12 2.83c1.17,-0.15 4.19,-0.64 5.17,-1.2 -1.38,-0.73 -2.65,-1.55 -3.37,-2.79l-2.92 1.16z"/>
   <path class="fil0" d="M37.98 28.16c-4.8,1.18 -3.11,8.41 1.39,7.36 4.59,-1.07 3.02,-8.44 -1.39,-7.36zm-0.06 1.88c-0.79,0.35 -1.39,1.15 -1.03,2.44 0.29,1.01 1.35,1.73 2.48,1.21 1.93,-0.87 1.07,-4.78 -1.45,-3.65z"/>
   <path class="fil0" d="M44.03 22.55c-4.59,1.81 -2.06,8.67 2.3,7.08 4.25,-1.55 2.18,-8.85 -2.3,-7.08zm0.6 1.58c-2.26,0.75 -1.36,4.71 1.13,3.82 1.89,-0.67 1.38,-4.66 -1.13,-3.82z"/>
   <path class="fil0" d="M49.64 16.23c-4.48,1.79 -1.97,8.57 2.3,7.08 4.16,-1.45 2.46,-8.97 -2.3,-7.08zm0.6 1.6c-2.35,0.92 -1.06,4.78 1.33,3.75 1.98,-0.86 0.94,-4.64 -1.33,-3.75z"/>
   <path class="fil0" d="M50.89 28.89c-4.91,1.24 -2.82,8.67 1.72,7.25 4.11,-1.28 2.82,-8.39 -1.72,-7.25zm0 1.78c-2.03,0.91 -1.09,4.64 1.36,3.75 2.13,-0.78 1.14,-4.89 -1.36,-3.75z"/>
   <path class="fil0" d="M37.95 16.23c-4.66,1.44 -2.56,8.53 1.95,7.22 1.61,-0.47 2.97,-2.51 2.35,-4.75 -0.45,-1.64 -2.18,-3.12 -4.3,-2.47zm0.07 1.69c-0.54,0.32 -1.31,1.21 -0.81,2.73 0.26,0.78 1.17,1.56 2.35,1.06 1.55,-0.66 1.94,-4.28 -1.54,-3.79z"/>
  </g>
 </g>
</svg>
